<?xml version="1.0" encoding="UTF-8"?>
<svg xmlns="http://www.w3.org/2000/svg" xmlns:xlink="http://www.w3.org/1999/xlink" width="192px" height="192px" viewBox="0 0 192 192" version="1.1">
<g id="surface1">
<path style="fill-rule:nonzero;fill:rgb(87.843137%,87.843137%,87.843137%);fill-opacity:1;stroke-width:3;stroke-linecap:round;stroke-linejoin:round;stroke:rgb(20%,20%,20%);stroke-opacity:1;stroke-miterlimit:10;" d="M 64.900716 17.899577 C 55.000814 22.300212 45.100911 22.300212 35.099284 17.899577 C 34.000651 17.399089 32.700602 18.300374 32.800293 19.500732 C 34.999593 42.799886 64.900716 42.799886 67.100016 19.500732 C 67.199707 18.300374 65.999349 17.399089 64.900716 17.899577 Z M 64.900716 17.899577 " transform="matrix(1.92,0,0,1.92,0,0)"/>
<path style="fill-rule:nonzero;fill:rgb(100%,100%,100%);fill-opacity:1;stroke-width:3;stroke-linecap:round;stroke-linejoin:round;stroke:rgb(20%,20%,20%);stroke-opacity:1;stroke-miterlimit:10;" d="M 73.699951 19.399007 C 71.999105 18.800863 70.200602 18.200684 68.400065 17.700195 C 67.100016 17.299398 65.700277 17.000326 64.300537 16.699219 C 64.300537 39.099121 35.699463 39.099121 35.699463 16.699219 C 34.299723 17.000326 32.999674 17.299398 31.599935 17.700195 C 29.799398 18.200684 28.000895 18.800863 26.300049 19.399007 C 19.500732 21.899414 13.299561 25.600179 7.499186 30.600993 L 15.000407 45.800781 L 26.300049 40.199788 L 26.300049 83.199056 L 73.699951 83.199056 L 73.699951 40.199788 L 84.999593 45.800781 L 92.500814 30.600993 C 86.700439 25.69987 80.499268 21.999105 73.699951 19.399007 Z M 73.699951 19.399007 " transform="matrix(1.92,0,0,1.92,0,0)"/>
<path style="fill-rule:nonzero;fill:rgb(95.686275%,49.411765%,37.647059%);fill-opacity:1;stroke-width:3;stroke-linecap:round;stroke-linejoin:round;stroke:rgb(20%,20%,20%);stroke-opacity:1;stroke-miterlimit:10;" d="M 50 44.700114 L 54.099528 53.000895 L 63.19987 54.300944 L 56.599935 60.699463 L 58.199056 69.799805 L 50 65.500895 L 41.800944 69.799805 L 43.400065 60.699463 L 36.80013 54.300944 L 45.900472 53.000895 Z M 50 44.700114 " transform="matrix(1.92,0,0,1.92,0,0)"/>
</g>
</svg>
